# Blender v3.2.1 OBJ File: 'snowman.blend'
# www.blender.org
mtllib snowman.mtl
o Cube
v 0.358759 1.440241 -0.798999
v 1.000000 -1.000000 -1.000000
v 0.363031 1.435968 0.798999
v 1.000000 -1.000000 1.000000
v -0.358759 1.440241 -0.798999
v -1.000000 -1.000000 -1.000000
v -0.363031 1.435968 0.798999
v -1.000000 -1.000000 1.000000
v 1.000000 1.000000 1.000000
v -1.000000 1.000000 1.000000
v 1.000000 1.000000 -1.000000
v -1.000000 1.000000 -1.000000
v 0.585539 2.694478 0.106838
v -0.585539 2.215778 0.585539
v 0.585539 2.694478 -0.106838
v -0.585539 2.215778 -0.585539
v 0.363031 1.779810 0.798999
v -0.363031 1.779810 0.798999
v 0.358759 1.775537 -0.798999
v -0.358759 1.775537 -0.798999
v 0.585539 2.894502 0.106838
v -0.585539 3.611888 0.585539
v 0.585539 2.894502 -0.106838
v -0.585539 3.611888 -0.585539
v 0.798999 1.000000 0.798999
v -0.798999 1.000000 0.798999
v 0.798999 2.215778 0.798999
v -0.798999 2.215778 0.798999
v 0.363031 1.435968 3.553694
v -0.363031 1.435968 3.553694
v 0.363031 1.779810 3.553694
v -0.363031 1.779810 3.553694
v -0.798999 1.000000 -0.798999
v 0.798999 1.000000 -0.798999
v -0.798999 2.215778 -0.798999
v 0.798999 2.215778 -0.798999
v -0.358759 1.440241 -2.996965
v 0.358759 1.440241 -2.996965
v -0.358759 1.775537 -2.996965
v 0.358759 1.775537 -2.996965
v 0.585539 2.215778 -0.585539
v 0.585539 2.215778 0.585539
v 0.585539 3.611888 -0.585539
v 0.585539 3.611888 0.585539
v 0.585539 2.215778 -0.585539
v 0.585539 2.215778 0.585539
v 0.585539 3.611888 -0.585539
v 0.585539 3.611888 0.585539
v 1.036020 2.694478 -0.106838
v 1.036020 2.694478 0.106838
v 1.036020 2.894502 -0.027877
v 1.036020 2.894502 0.019725
vt 0.911759 0.946188
vt 0.952449 0.679454
vt 0.952449 0.946188
vt 0.728045 0.242835
vt 0.485421 0.485453
vt 0.485421 0.242759
vt 0.242710 0.485421
vt 0.000000 0.242710
vt 0.242710 0.242710
vt 0.485421 0.000000
vt 0.242710 0.000000
vt 0.485420 0.485421
vt 0.242710 0.242710
vt 0.485421 0.242710
vt 0.728060 0.000000
vt 0.485421 0.242759
vt 0.485421 0.000063
vt 0.218318 0.218318
vt 0.000000 0.242710
vt 0.024392 0.218318
vt 0.000000 0.000000
vt 0.024392 0.024392
vt 0.218318 0.024392
vt 0.242710 0.242710
vt 0.242710 0.000000
vt 0.870168 0.000037
vt 0.728060 0.169376
vt 0.728060 0.000000
vt 0.632961 0.679454
vt 0.485420 0.485529
vt 0.632961 0.485529
vt 0.429578 0.679346
vt 0.282037 0.485421
vt 0.429578 0.485421
vt 0.471305 0.485421
vt 0.429578 0.819717
vt 0.429578 0.485421
vt 0.168021 0.653441
vt 0.000000 0.679346
vt 0.025904 0.653441
vt 0.000000 0.485421
vt 0.025905 0.511325
vt 0.168021 0.511325
vt 0.193925 0.679346
vt 0.193925 0.485421
vt 0.958273 0.509494
vt 0.816157 0.651610
vt 0.816157 0.509494
vt 0.699851 0.573647
vt 0.724116 0.628319
vt 0.699570 0.628436
vt 0.627537 0.679454
vt 0.485421 0.848879
vt 0.485421 0.679454
vt 0.769653 0.848864
vt 0.911759 0.679454
vt 0.911759 0.848819
vt 0.334925 0.732266
vt 0.282037 0.873258
vt 0.282037 0.679346
vt 0.376637 0.820384
vt 0.429525 0.679392
vt 0.429525 0.873304
vt 0.376637 0.732279
vt 0.334925 0.820371
vt 0.632961 0.485529
vt 0.674674 0.573647
vt 0.632961 0.573634
vt 0.816157 0.242759
vt 0.728045 0.577056
vt 0.728045 0.242759
vt 0.958273 0.843790
vt 1.000000 0.509494
vt 1.000000 0.843790
vt 0.282037 0.485421
vt 0.193925 0.819717
vt 0.193925 0.485421
vt 0.053410 0.819862
vt 0.000000 0.679384
vt 0.053410 0.732793
vt 0.094088 0.732782
vt 0.147498 0.873260
vt 0.094088 0.819851
vt 0.147498 0.679346
vt 0.000000 0.873298
vt 0.632961 0.573658
vt 0.673639 0.660716
vt 0.632961 0.660727
vt 0.903231 0.509494
vt 0.990305 0.242759
vt 0.990305 0.509494
vt 0.188188 0.679346
vt 0.147498 0.946080
vt 0.147498 0.679346
vt 0.816157 0.509494
vt 0.903231 0.242759
vt 0.903231 0.509494
vt 0.485421 0.242759
vt 0.485421 0.242759
vt 0.485421 0.242759
vt 0.485421 0.242759
vt 0.485421 0.242759
vt 0.485421 0.242759
vt 0.485421 0.242759
vt 0.485421 0.242759
vt 0.685630 0.737547
vt 0.769653 0.679454
vt 0.711560 0.737547
vt 0.711560 0.761821
vt 0.627537 0.848879
vt 0.685630 0.761821
vt 0.769653 0.848879
vt 0.627537 0.679454
vt 0.673640 0.628315
vt 0.697913 0.643674
vt 0.673640 0.654246
vt 0.699570 0.628315
vt 0.684211 0.573647
vt 0.689988 0.573647
vt 0.700822 0.540297
vt 0.725103 0.485631
vt 0.725089 0.540297
vt 0.700604 0.485529
vt 0.674674 0.540197
vt 0.674674 0.485529
vt 0.911759 0.679454
vt 0.728045 0.485529
vt 0.000000 0.485420
vt 0.485420 0.242710
vt 0.242710 0.485420
vt 0.728060 0.242696
vt 0.870168 0.169413
vt 0.485420 0.679454
vt 0.282037 0.679346
vt 0.471305 0.819717
vt 0.958273 0.651610
vt 0.724116 0.573655
vt 0.627537 0.848879
vt 0.769653 0.679499
vt 0.674674 0.485542
vt 0.816157 0.577056
vt 0.958273 0.509494
vt 0.282037 0.819717
vt 0.673639 0.573647
vt 0.903231 0.242759
vt 0.188188 0.946080
vt 0.816157 0.242759
vt 0.697913 0.637897
vt 0.673639 0.628315
vt 0.700604 0.485529
vt 0.700604 0.540197
vn -1.0000 0.0000 0.0000
vn 0.0000 0.0000 1.0000
vn 0.0000 -1.0000 0.0000
vn 1.0000 0.0000 0.0000
vn 0.0000 0.0000 -1.0000
vn 0.0000 1.0000 0.0000
vn 0.1746 0.3932 0.9027
vn 0.1609 0.3624 -0.9180
usemtl Material
s off
f 20/1/1 37/2/1 5/3/1
f 9/4/2 8/5/2 4/6/2
f 10/7/1 6/8/1 8/9/1
f 2/10/3 8/9/3 6/11/3
f 11/12/4 4/13/4 2/14/4
f 12/15/5 2/16/5 6/17/5
f 26/18/6 9/19/6 25/20/6
f 25/20/6 11/21/6 34/22/6
f 33/23/6 10/24/6 26/18/6
f 34/22/6 12/25/6 33/23/6
f 16/26/5 43/27/5 41/28/5
f 34/29/4 27/30/4 25/31/4
f 26/32/1 35/33/1 33/34/1
f 7/35/1 32/36/1 18/37/1
f 14/38/6 27/39/6 42/40/6
f 42/40/6 36/41/6 41/42/6
f 16/43/6 28/44/6 14/38/6
f 41/42/6 35/45/6 16/43/6
f 24/46/6 44/47/6 43/48/6
f 21/49/7 50/50/7 52/51/7
f 14/52/1 24/53/1 16/54/1
f 42/55/2 22/56/2 14/57/2
f 3/58/2 26/59/2 25/60/2
f 18/61/2 27/62/2 28/63/2
f 3/58/2 27/62/2 17/64/2
f 18/61/2 26/59/2 7/65/2
f 29/66/2 32/67/2 30/68/2
f 18/69/6 31/70/6 17/71/6
f 17/72/4 29/73/4 3/74/4
f 3/75/3 30/76/3 7/77/3
f 1/78/5 33/79/5 5/80/5
f 20/81/5 36/82/5 19/83/5
f 5/80/5 35/84/5 20/81/5
f 19/83/5 34/85/5 1/78/5
f 37/86/5 40/87/5 38/88/5
f 5/89/3 38/90/3 1/91/3
f 1/92/4 40/93/4 19/94/4
f 19/95/6 39/96/6 20/97/6
f 45/98/2 42/99/2 41/100/2
f 48/101/2 43/102/2 44/103/2
f 47/104/2 41/100/2 43/102/2
f 46/105/2 44/103/2 42/99/2
f 13/106/4 45/107/4 15/108/4
f 23/109/4 48/110/4 21/111/4
f 23/109/4 45/107/4 47/112/4
f 21/111/4 46/113/4 13/106/4
f 49/114/4 52/115/4 50/116/4
f 23/117/6 52/118/6 51/119/6
f 23/120/5 49/121/5 15/122/5
f 15/123/3 50/124/3 13/125/3
f 20/1/1 39/126/1 37/2/1
f 9/4/2 10/127/2 8/5/2
f 10/7/1 12/128/1 6/8/1
f 2/10/3 4/129/3 8/9/3
f 11/12/4 9/130/4 4/13/4
f 12/15/5 11/131/5 2/16/5
f 26/18/6 10/24/6 9/19/6
f 25/20/6 9/19/6 11/21/6
f 33/23/6 12/25/6 10/24/6
f 34/22/6 11/21/6 12/25/6
f 16/26/5 24/132/5 43/27/5
f 34/29/4 36/133/4 27/30/4
f 26/32/1 28/134/1 35/33/1
f 7/35/1 30/135/1 32/36/1
f 14/38/6 28/44/6 27/39/6
f 42/40/6 27/39/6 36/41/6
f 16/43/6 35/45/6 28/44/6
f 41/42/6 36/41/6 35/45/6
f 24/46/6 22/136/6 44/47/6
f 21/49/2 13/137/2 50/50/2
f 14/52/1 22/138/1 24/53/1
f 42/55/2 44/139/2 22/56/2
f 3/58/2 7/65/2 26/59/2
f 18/61/2 17/64/2 27/62/2
f 3/58/2 25/60/2 27/62/2
f 18/61/2 28/63/2 26/59/2
f 29/66/2 31/140/2 32/67/2
f 18/69/6 32/141/6 31/70/6
f 17/72/4 31/142/4 29/73/4
f 3/75/3 29/143/3 30/76/3
f 1/78/5 34/85/5 33/79/5
f 20/81/5 35/84/5 36/82/5
f 5/80/5 33/79/5 35/84/5
f 19/83/5 36/82/5 34/85/5
f 37/86/5 39/144/5 40/87/5
f 5/89/3 37/145/3 38/90/3
f 1/92/4 38/146/4 40/93/4
f 19/95/6 40/147/6 39/96/6
f 45/98/2 46/105/2 42/99/2
f 48/101/2 47/104/2 43/102/2
f 47/104/2 45/98/2 41/100/2
f 46/105/2 48/101/2 44/103/2
f 13/106/4 46/113/4 45/107/4
f 23/109/4 47/112/4 48/110/4
f 23/109/4 15/108/4 45/107/4
f 21/111/4 48/110/4 46/113/4
f 49/114/4 51/148/4 52/115/4
f 23/117/6 21/149/6 52/118/6
f 23/120/8 51/150/8 49/121/8
f 15/123/3 49/151/3 50/124/3
